<svg xmlns="http://www.w3.org/2000/svg" xmlns:xlink="http://www.w3.org/1999/xlink" viewBox="0 0 8.523 18.152" height="68.606" width="32.214"><defs><linearGradient id="a"><stop offset="0" stop-color="#4d4d61"/><stop offset="1" stop-color="#282846" stop-opacity=".552"/></linearGradient><linearGradient gradientUnits="userSpaceOnUse" y2="162.689" x2="103.311" y1="144.514" x1="94.754" id="b" xlink:href="#a"/></defs><path d="M96.824 162.631c-.878-.182-1.399-.606-1.663-1.355-.19-.536-.367-1.767-.397-2.744l-.025-.843.377-.033c.432-.038 1.254.208 1.355.405.036.07.087.433.113.805.093 1.311.421 1.928 1.141 2.143.42.126 1.898.13 2.344.007.467-.13.848-.541 1.014-1.096.338-1.134.351-6.05.02-7.274-.15-.548-.474-.88-.997-1.02-.534-.144-2.336-.076-2.68.101l-.274.142v-1.948l1.977.028 1.977.028.581.296c.517.263.608.348.818.762.305.6.458 1.364.569 2.836.167 2.233.07 5.322-.21 6.689a5.06 5.06 0 0 1-.359 1.058c-.21.414-.301.499-.818.762l-.58.297-1.957.015c-1.076.01-2.123-.018-2.326-.06zm0-5.338c-.87-.17-1.398-.6-1.663-1.351-.333-.943-.414-1.888-.418-4.865-.007-4.683.288-5.8 1.658-6.276.397-.139.722-.159 2.573-.159h2.118l.57.28c.991.489 1.23 1.164 1.452 4.102l.043.571h-.566c-.311 0-.723-.06-.916-.134l-.35-.134-.05-.776c-.096-1.477-.38-2.043-1.134-2.252-.429-.119-2.202-.104-2.527.022-.696.269-.917.733-1.064 2.232-.137 1.389-.056 4.945.13 5.744.29 1.25.581 1.437 2.25 1.437.919 0 1.194-.029 1.407-.145l.265-.145.052.314c.028.173.052.61.053.97v.657l-1.756-.01c-.966-.004-1.923-.041-2.127-.081z" fill="url(#b)" stroke="#000" stroke-width=".1" transform="translate(-94.687 -144.592)"/></svg>